<mxfile host="app.diagrams.net" agent="Mozilla/5.0 (Macintosh; Intel Mac OS X 10_15_7) AppleWebKit/537.36 (KHTML, like Gecko) Chrome/137.0.0.0 Safari/537.36" version="27.1.6">
  <diagram name="Page-1" id="OZbukPz6n_MgqHt3N5gH">
    <mxGraphModel dx="2066" dy="731" grid="1" gridSize="10" guides="1" tooltips="1" connect="1" arrows="1" fold="1" page="1" pageScale="1" pageWidth="850" pageHeight="1100" math="0" shadow="0">
      <root>
        <mxCell id="0" />
        <mxCell id="1" parent="0" />
        <mxCell id="bcAafJMk-JIZBCAYzu4H-1" value="&lt;font&gt;AWS Cloud&lt;/font&gt;" style="points=[[0,0],[0.25,0],[0.5,0],[0.75,0],[1,0],[1,0.25],[1,0.5],[1,0.75],[1,1],[0.75,1],[0.5,1],[0.25,1],[0,1],[0,0.75],[0,0.5],[0,0.25]];outlineConnect=0;gradientColor=none;html=1;whiteSpace=wrap;fontSize=12;fontStyle=0;container=1;pointerEvents=0;collapsible=0;recursiveResize=0;shape=mxgraph.aws4.group;grIcon=mxgraph.aws4.group_aws_cloud_alt;strokeColor=#232F3E;fillColor=none;verticalAlign=top;align=left;spacingLeft=30;fontColor=#232F3E;dashed=0;" vertex="1" parent="1">
          <mxGeometry x="237.87" y="80" width="642.13" height="360" as="geometry" />
        </mxCell>
        <mxCell id="bcAafJMk-JIZBCAYzu4H-2" style="edgeStyle=orthogonalEdgeStyle;rounded=0;orthogonalLoop=1;jettySize=auto;html=1;strokeWidth=3;endArrow=blockThin;endFill=1;strokeColor=#333333;startArrow=blockThin;startFill=1;" edge="1" parent="1" source="bcAafJMk-JIZBCAYzu4H-4" target="bcAafJMk-JIZBCAYzu4H-18">
          <mxGeometry relative="1" as="geometry">
            <mxPoint x="167.87" y="170" as="sourcePoint" />
            <Array as="points">
              <mxPoint x="250" y="280" />
              <mxPoint x="250" y="280" />
            </Array>
            <mxPoint x="370" y="240" as="targetPoint" />
          </mxGeometry>
        </mxCell>
        <mxCell id="bcAafJMk-JIZBCAYzu4H-4" value="Internet" style="sketch=0;outlineConnect=0;fontColor=#232F3E;gradientColor=none;fillColor=#232F3D;strokeColor=none;dashed=0;verticalLabelPosition=bottom;verticalAlign=top;align=center;html=1;fontSize=12;fontStyle=0;aspect=fixed;pointerEvents=1;shape=mxgraph.aws4.internet;" vertex="1" parent="1">
          <mxGeometry x="49.99" y="218.84000000000003" width="133.75" height="82.31" as="geometry" />
        </mxCell>
        <mxCell id="bcAafJMk-JIZBCAYzu4H-5" style="edgeStyle=orthogonalEdgeStyle;rounded=0;orthogonalLoop=1;jettySize=auto;html=1;strokeWidth=3;endArrow=blockThin;endFill=1;strokeColor=#333333;" edge="1" parent="1" source="bcAafJMk-JIZBCAYzu4H-7" target="bcAafJMk-JIZBCAYzu4H-4">
          <mxGeometry relative="1" as="geometry">
            <mxPoint x="117" y="320" as="targetPoint" />
            <Array as="points">
              <mxPoint x="20" y="279" />
              <mxPoint x="20" y="279" />
            </Array>
          </mxGeometry>
        </mxCell>
        <mxCell id="bcAafJMk-JIZBCAYzu4H-7" value="User / Admin" style="sketch=0;outlineConnect=0;fontColor=#232F3E;gradientColor=none;fillColor=#232F3D;strokeColor=none;dashed=0;verticalLabelPosition=bottom;verticalAlign=top;align=center;html=1;fontSize=12;fontStyle=0;aspect=fixed;pointerEvents=1;shape=mxgraph.aws4.user;" vertex="1" parent="1">
          <mxGeometry x="-78" y="240" width="78" height="78" as="geometry" />
        </mxCell>
        <mxCell id="bcAafJMk-JIZBCAYzu4H-15" value="&lt;font style=&quot;color: rgb(0, 0, 0);&quot;&gt;VPC&lt;/font&gt;&lt;div&gt;&lt;font style=&quot;color: rgb(0, 0, 0);&quot;&gt;10.0.0.0/16&lt;/font&gt;&lt;/div&gt;" style="points=[[0,0],[0.25,0],[0.5,0],[0.75,0],[1,0],[1,0.25],[1,0.5],[1,0.75],[1,1],[0.75,1],[0.5,1],[0.25,1],[0,1],[0,0.75],[0,0.5],[0,0.25]];outlineConnect=0;gradientColor=none;html=1;whiteSpace=wrap;fontSize=12;fontStyle=0;container=0;pointerEvents=0;collapsible=0;recursiveResize=0;shape=mxgraph.aws4.group;grIcon=mxgraph.aws4.group_vpc2;strokeColor=#8C4FFF;fillColor=none;verticalAlign=top;align=left;spacingLeft=30;fontColor=#AAB7B8;dashed=0;" vertex="1" parent="1">
          <mxGeometry x="280" y="140" width="560" height="260" as="geometry" />
        </mxCell>
        <mxCell id="bcAafJMk-JIZBCAYzu4H-16" value="Private subnet&lt;div&gt;10.0.1.0/24&lt;/div&gt;&lt;div&gt;&lt;span style=&quot;background-color: transparent;&quot;&gt;&lt;br&gt;&lt;/span&gt;&lt;/div&gt;&lt;div&gt;&lt;span style=&quot;background-color: transparent;&quot;&gt;SG Rules&lt;/span&gt;&lt;/div&gt;&lt;div&gt;&lt;div&gt;+ SSH from public subnet&lt;/div&gt;&lt;div&gt;+ HTTP/S from public subnet&lt;/div&gt;&lt;div&gt;&lt;br&gt;&lt;/div&gt;&lt;div&gt;NACL Rules&lt;/div&gt;&lt;div&gt;+ SSH, HTTP/S&lt;/div&gt;&lt;div&gt;+ Ports&amp;nbsp;&lt;span style=&quot;background-color: transparent;&quot;&gt;1024 - 65535&lt;/span&gt;&lt;/div&gt;&lt;/div&gt;" style="points=[[0,0],[0.25,0],[0.5,0],[0.75,0],[1,0],[1,0.25],[1,0.5],[1,0.75],[1,1],[0.75,1],[0.5,1],[0.25,1],[0,1],[0,0.75],[0,0.5],[0,0.25]];outlineConnect=0;gradientColor=none;html=1;whiteSpace=wrap;fontSize=12;fontStyle=0;container=1;pointerEvents=0;collapsible=0;recursiveResize=0;shape=mxgraph.aws4.group;grIcon=mxgraph.aws4.group_security_group;grStroke=0;strokeColor=#00A4A6;fillColor=#E6F6F7;verticalAlign=top;align=left;spacingLeft=30;fontColor=#147EBA;dashed=0;" vertex="1" parent="1">
          <mxGeometry x="600" y="200" width="200" height="160" as="geometry" />
        </mxCell>
        <mxCell id="bcAafJMk-JIZBCAYzu4H-18" value="Public subnet&lt;div&gt;10.0.0.0/24&lt;/div&gt;&lt;div&gt;&lt;br&gt;&lt;/div&gt;&lt;div&gt;SG Rules&lt;/div&gt;&lt;div&gt;+ SSH from admin&lt;/div&gt;&lt;div&gt;+ HTTP/S&lt;/div&gt;&lt;div&gt;&lt;br&gt;&lt;/div&gt;&lt;div&gt;NACL Rule&lt;/div&gt;&lt;div&gt;+ All traffic&lt;/div&gt;" style="points=[[0,0],[0.25,0],[0.5,0],[0.75,0],[1,0],[1,0.25],[1,0.5],[1,0.75],[1,1],[0.75,1],[0.5,1],[0.25,1],[0,1],[0,0.75],[0,0.5],[0,0.25]];outlineConnect=0;gradientColor=none;html=1;whiteSpace=wrap;fontSize=12;fontStyle=0;container=1;pointerEvents=0;collapsible=0;recursiveResize=0;shape=mxgraph.aws4.group;grIcon=mxgraph.aws4.group_security_group;grStroke=0;strokeColor=#7AA116;fillColor=#F2F6E8;verticalAlign=top;align=left;spacingLeft=30;fontColor=#248814;dashed=0;" vertex="1" parent="1">
          <mxGeometry x="320" y="200" width="200" height="160" as="geometry" />
        </mxCell>
        <mxCell id="bcAafJMk-JIZBCAYzu4H-22" style="edgeStyle=orthogonalEdgeStyle;rounded=0;orthogonalLoop=1;jettySize=auto;html=1;strokeWidth=3;endArrow=blockThin;endFill=1;strokeColor=#333333;startArrow=blockThin;startFill=1;" edge="1" parent="1" source="bcAafJMk-JIZBCAYzu4H-18" target="bcAafJMk-JIZBCAYzu4H-16">
          <mxGeometry relative="1" as="geometry">
            <Array as="points">
              <mxPoint x="520" y="280" />
              <mxPoint x="520" y="280" />
            </Array>
            <mxPoint x="438.9999999999999" y="258" as="sourcePoint" />
          </mxGeometry>
        </mxCell>
      </root>
    </mxGraphModel>
  </diagram>
</mxfile>
